/* XPM */
static char *_28b776438354b5ebbf1612d34febc91yBxruQjzaKuLVhvj[] = {
/* columns rows colors chars-per-pixel */
"64 64 12 1 ",
"  c None",
". c #5F7A79",
"X c #8A4A70",
"o c #A35B70",
"O c #AF6776",
"+ c #BD757E",
"@ c #6E967C",
"# c #97BB8E",
"$ c #D99A9A",
"% c #E8B5AC",
"& c #AED499",
"* c #C2E09A",
/* pixels */
"                                                                ",
"                                                                ",
"                                                                ",
"                     ........................                   ",
"                     ........................                   ",
"                .....###&&&&&&&&&&&&&&&&#####...                ",
"                .....###&&&&&&&&&&&&&&&&#####...                ",
"                .....###&&&&&&&&&&&&&&&&#####...                ",
"           .....###&&&&&&&&********&&******&&###.....           ",
"           .....###&&&&&&&&********&&******&&###.....           ",
"           .....###&&&&&&&&********&&******&&###.....           ",
"        ...##&&&&&&&&&&&&&&********&&******&&&&&#####...        ",
"        ...##&&&&&&&&&&&&&&********&&******&&&&&#####...        ",
"     ...###&&********&&&********&&&&&&&&&&&&&&&&&&&&&###...     ",
"     ...###&&********&&&********&&&&&&&&&&&&&&&&&&&&&###...     ",
"     ...###&&********&&&********&&&&&&&&&&&&&&&&&&&&&###...     ",
"   ..######&&****************&&&&&&&&********&&&&&&&&######..   ",
"   ..######&&****************&&&&&&&&********&&&&&&&&######..   ",
"   ..######&&****************&&&&&&&&********&&&&&&&&######..   ",
"   ..&&&&&&&&&&&&&&*****&&&&&&&&&&&&&***OOOOO***OOOoo######..   ",
"   ..&&&&&&&&&&&&&&*****&&&&&&&&&&&&&***OOOOO***OOOoo######..   ",
"...##&&&&&&&&&&&&&&&&&&&&&&&&&&&&&&&&OOO%%%$$OOO+++++XXX&&&##...",
"...##&&&&&&&&&&&&&&&&&&&&&&&&&&&&&&&&OOO%%%$$OOO+++++XXX&&&##...",
"...##&&&&&&&&&&&&&&&&&&&&&&&&&&&&&&&&OOO%%%$$OOO+++++XXX&&&##...",
"...##&&&&&&&&&&&&&&&&&&&&&&&&&&&&&&&&ooo$$$++++++++++XXX&&&##...",
"...##&&&&&&&&&&&&&&&&&&&&&&&&&&&&&&&&ooo$$$++++++++++XXX&&&##...",
"...##&&&&&&&&&&&&&&&&&&&&&&&&&&&&&&&&ooo$$$++++++++++XXX&&&##...",
"...#####OOOOO&&&OOOoo###&&&&&&&&&&&&&&&&ooo++OOO+++XX########...",
"...#####OOOOO&&&OOOoo###&&&&&&&&&&&&&&&&ooo++OOO+++XX########...",
"...##OOO%%%$$OOO+++++XXX&&&&&&&&&&&&&&&&###XXXXXXXX&&######..   ",
"...##OOO%%%$$OOO+++++XXX&&&&&&&&&&&&&&&&###XXXXXXXX&&######..   ",
"...##OOO%%%$$OOO+++++XXX&&&&&&&&&&&&&&&&###XXXXXXXX&&######..   ",
"...##ooo$$$++++++++++XXX########&&&&&###&&&&&&&&###########..   ",
"...##ooo$$$++++++++++XXX########&&&&&###&&&&&&&&###########..   ",
"...##ooo$$$++++++++++XXX########&&&&&###&&&&&&&&###########..   ",
"   ..###ooo++OOO+++XX########################################...",
"   ..###ooo++OOO+++XX########################################...",
"   ..######XXXXXXXX##########################################...",
"   ..######XXXXXXXX##########################################...",
"   ..######XXXXXXXX##########################################...",
"...@@######################################################@@...",
"...@@######################################################@@...",
"...@@######################################################@@...",
"...@@@@@@@@##@@@@@@#####@@@@@@@@#############@@@@@@@@@@@@@@@@...",
"...@@@@@@@@##@@@@@@#####@@@@@@@@#############@@@@@@@@@@@@@@@@...",
"...@@@@@@@@##@@@@@@#####@@@@@@@@OOOOO###OOOoo@@@@@@@@@@@@@@@@...",
"...@@@@@@@@##@@@@@@#####@@@@@@@@OOOOO###OOOoo@@@@@@@@@@@@@@@@...",
"...@@@@@@@@##@@@@@@#####@@@@@@@@OOOOO###OOOoo@@@@@@@@@@@@@@@@...",
"...@@@@@@@@@@@@@@@@@@@@@#####OOO%%%$$OOO+++++XXX#####@@@@@@..   ",
"...@@@@@@@@@@@@@@@@@@@@@#####OOO%%%$$OOO+++++XXX#####@@@@@@..   ",
"...@@@@@@@@@@@@@@@@@@@@@#####OOO%%%$$OOO+++++XXX#####@@@@@@..   ",
"   ..@@@@@@########@@@@@@@@@@ooo$$$++++++++++XXX@@@@@@@@@@@..   ",
"   ..@@@@@@########@@@@@@@@@@ooo$$$++++++++++XXX@@@@@@@@@@@..   ",
"   ..@@@@@@@@@@@@@@@@@@@@@@@@@@@ooo++OOO+++XX@@@@@@@@@@@@@@..   ",
"   ..@@@@@@@@@@@@@@@@@@@@@@@@@@@ooo++OOO+++XX@@@@@@@@@@@@@@..   ",
"   ..@@@@@@@@@@@@@@@@@@@@@@@@@@@ooo++OOO+++XX@@@@@@@@@@@@@@..   ",
"     ...@@@@@@@@@@@@@@@@@@@@@@@@@@@XXXXXXXX@@@@@@@@@@@@@...     ",
"     ...@@@@@@@@@@@@@@@@@@@@@@@@@@@XXXXXXXX@@@@@@@@@@@@@...     ",
"     ...@@@@@@@@@@@@@@@@@@@@@@@@@@@XXXXXXXX@@@@@@@@@@@@@...     ",
"        .....@@@@@@@@@@@@@@@@@@@@@@@@@@@@@@@@@@@........        ",
"        .....@@@@@@@@@@@@@@@@@@@@@@@@@@@@@@@@@@@........        ",
"             ...................................                ",
"             ...................................                ",
"             ...................................                "
};
