/* XPM */
static char *e03bf67629ee4b8ec38305e853ed47b2R09Oyxd23UYQV9yd[] = {
/* columns rows colors chars-per-pixel */
"64 64 8 1 ",
"  c None",
". c #EAE178",
"X c #5C4E92",
"o c #766DAA",
"O c #E8B5AC",
"+ c #DDD5DE",
"@ c #F3D8C5",
"# c #F3F2C0",
/* pixels */
"                                                                ",
"                                                                ",
"                                                                ",
"                                                                ",
"                                                                ",
"                                                                ",
"                XXXXXXXXX             XXXXXXXXXX                ",
"                XXXXXXXXX             XXXXXXXXXX                ",
"                XXXXXXXXX             XXXXXXXXXX                ",
"             XXX#########XXXX      XXX##########XXX             ",
"             XXX#########XXXX      XXX##########XXX             ",
"             XXX#########XXXX      XXX##########XXX             ",
"             XXX#########XXXX      XXX##########XXX             ",
"             XXXOOOOOO###XXXXXXXXXXXXX###OOOOOOOXXX             ",
"             XXXOOOOOO###XXXXXXXXXXXXX###OOOOOOOXXX             ",
"             XXXOOOOOO###XXXXXXXXXXXXX###OOOOOOOXXX             ",
"             XXXOOOOOO###+++++++++++++###OOOOOOOXXX             ",
"             XXXOOOOOO###+++++++++++++###OOOOOOOXXX             ",
"             XXXOOOOOO###+++++++++++++###OOOOOOOXXX             ",
"             XXX#########+++++++++++++##########XXX             ",
"             XXX#########+++++++++++++##########XXX             ",
"             XXX#########+++++++++++++##########XXX             ",
"             XXX#########+++++++++++++##########XXX             ",
"             XXX#########+++++++++++++##########XXX             ",
"             XXX#########+++++++++++++##########XXX             ",
"         XXXXXXX################################XXXXXX          ",
"         XXXXXXX################################XXXXXX          ",
"         XXXXXXX################################XXXXXX          ",
"         XXXXXXX################################XXXXXX          ",
"             XXX###XXX###################XXXX###XXX             ",
"             XXX###XXX###################XXXX###XXX             ",
"             XXX###XXX###################XXXX###XXX             ",
"         XXXXXXX################################XXXXXX          ",
"         XXXXXXX################################XXXXXX          ",
"         XXXXXXX################################XXXXXX          ",
"             XXX@@@@@@###################@@@@@@@XXX             ",
"             XXX@@@@@@###################@@@@@@@XXX             ",
"             XXX@@@@@@###################@@@@@@@XXX             ",
"                XXXXXXoooooooooooooooooooXXXXXXX                ",
"                XXXXXXoooooooooooooooooooXXXXXXX                ",
"                XXXXXXoooooooooooooooooooXXXXXXX                ",
"             XXX+++###ooooooo...###oooooo####+++XXX             ",
"             XXX+++###ooooooo...###oooooo####+++XXX             ",
"             XXX+++###ooooooo...###oooooo####+++XXX             ",
"             XXX+++###ooooooo...###oooooo####+++XXX             ",
"             XXX+++##########......##########+++XXX             ",
"             XXX+++##########......##########+++XXX             ",
"             XXX+++##########......##########+++XXX             ",
"                XXXXXX###################XXXXXXX                ",
"                XXXXXX###################XXXXXXX                ",
"                XXXXXX###################XXXXXXX                ",
"                   XXX+++++++XXXXXX++++++XXXX                   ",
"                   XXX+++++++XXXXXX++++++XXXX                   ",
"                   XXX+++++++XXXXXX++++++XXXX                   ",
"                      XXXXXXX      XXXXXX                       ",
"                      XXXXXXX      XXXXXX                       ",
"                      XXXXXXX      XXXXXX                       ",
"                                                                ",
"                                                                ",
"                                                                ",
"                                                                ",
"                                                                ",
"                                                                ",
"                                                                "
};
