/* XPM */
static char *_d2720a3c31240a9a94cf855ffa793f9xJwAL1sUP224SlYq[] = {
/* columns rows colors chars-per-pixel */
"64 64 12 1 ",
"  c #5F7A79",
". c #8A4A70",
"X c #A35B70",
"o c #AF6776",
"O c #BD757E",
"+ c #6E967C",
"@ c #C0D470",
"# c #97BB8E",
"$ c #D99A9A",
"% c #E8B5AC",
"& c #AED499",
"* c #C2E09A",
/* pixels */
"@@@@@@@@@@@@@@@@@@@@@@@@@@@@@@@@@@@@@@@@@@@@@@@@@@@@@@@@@@@@@@@@",
"@@@@@@@@@@@@@@@@@@@@@@@@@@@@@@@@@@@@@@@@@@@@@@@@@@@@@@@@@@@@@@@@",
"@@@@@@@@@@@@@@@@@@@@@@@@@@@@@@@@@@@@@@@@@@@@@@@@@@@@@@@@@@@@@@@@",
"@@@@@@@@@@@@@@@@@@@@@                        @@@@@@@@@@@@@@@@@@@",
"@@@@@@@@@@@@@@@@@@@@@                        @@@@@@@@@@@@@@@@@@@",
"@@@@@@@@@@@@@@@@     ###&&&&&&&&&&&&&&&&#####   @@@@@@@@@@@@@@@@",
"@@@@@@@@@@@@@@@@     ###&&&&&&&&&&&&&&&&#####   @@@@@@@@@@@@@@@@",
"@@@@@@@@@@@@@@@@     ###&&&&&&&&&&&&&&&&#####   @@@@@@@@@@@@@@@@",
"@@@@@@@@@@@     ###&&&&&&&&********&&******&&###     @@@@@@@@@@@",
"@@@@@@@@@@@     ###&&&&&&&&********&&******&&###     @@@@@@@@@@@",
"@@@@@@@@@@@     ###&&&&&&&&********&&******&&###     @@@@@@@@@@@",
"@@@@@@@@   ##&&&&&&&&&&&&&&********&&******&&&&&#####   @@@@@@@@",
"@@@@@@@@   ##&&&&&&&&&&&&&&********&&******&&&&&#####   @@@@@@@@",
"@@@@@   ###&&********&&&********&&&&&&&&&&&&&&&&&&&&&###   @@@@@",
"@@@@@   ###&&********&&&********&&&&&&&&&&&&&&&&&&&&&###   @@@@@",
"@@@@@   ###&&********&&&********&&&&&&&&&&&&&&&&&&&&&###   @@@@@",
"@@@  ######&&****************&&&&&&&&********&&&&&&&&######  @@@",
"@@@  ######&&****************&&&&&&&&********&&&&&&&&######  @@@",
"@@@  ######&&****************&&&&&&&&********&&&&&&&&######  @@@",
"@@@  &&&&&&&&&&&&&&*****&&&&&&&&&&&&&***ooooo***oooXX######  @@@",
"@@@  &&&&&&&&&&&&&&*****&&&&&&&&&&&&&***ooooo***oooXX######  @@@",
"   ##&&&&&&&&&&&&&&&&&&&&&&&&&&&&&&&&ooo%%%$$oooOOOOO...&&&##   ",
"   ##&&&&&&&&&&&&&&&&&&&&&&&&&&&&&&&&ooo%%%$$oooOOOOO...&&&##   ",
"   ##&&&&&&&&&&&&&&&&&&&&&&&&&&&&&&&&ooo%%%$$oooOOOOO...&&&##   ",
"   ##&&&&&&&&&&&&&&&&&&&&&&&&&&&&&&&&XXX$$$OOOOOOOOOO...&&&##   ",
"   ##&&&&&&&&&&&&&&&&&&&&&&&&&&&&&&&&XXX$$$OOOOOOOOOO...&&&##   ",
"   ##&&&&&&&&&&&&&&&&&&&&&&&&&&&&&&&&XXX$$$OOOOOOOOOO...&&&##   ",
"   #####ooooo&&&oooXX###&&&&&&&&&&&&&&&&XXXOOoooOOO..########   ",
"   #####ooooo&&&oooXX###&&&&&&&&&&&&&&&&XXXOOoooOOO..########   ",
"   ##ooo%%%$$oooOOOOO...&&&&&&&&&&&&&&&&###........&&######  @@@",
"   ##ooo%%%$$oooOOOOO...&&&&&&&&&&&&&&&&###........&&######  @@@",
"   ##ooo%%%$$oooOOOOO...&&&&&&&&&&&&&&&&###........&&######  @@@",
"   ##XXX$$$OOOOOOOOOO...########&&&&&###&&&&&&&&###########  @@@",
"   ##XXX$$$OOOOOOOOOO...########&&&&&###&&&&&&&&###########  @@@",
"   ##XXX$$$OOOOOOOOOO...########&&&&&###&&&&&&&&###########  @@@",
"@@@  ###XXXOOoooOOO..########################################   ",
"@@@  ###XXXOOoooOOO..########################################   ",
"@@@  ######........##########################################   ",
"@@@  ######........##########################################   ",
"@@@  ######........##########################################   ",
"   ++######################################################++   ",
"   ++######################################################++   ",
"   ++######################################################++   ",
"   ++++++++##++++++#####++++++++#############++++++++++++++++   ",
"   ++++++++##++++++#####++++++++#############++++++++++++++++   ",
"   ++++++++##++++++#####++++++++ooooo###oooXX++++++++++++++++   ",
"   ++++++++##++++++#####++++++++ooooo###oooXX++++++++++++++++   ",
"   ++++++++##++++++#####++++++++ooooo###oooXX++++++++++++++++   ",
"   +++++++++++++++++++++#####ooo%%%$$oooOOOOO...#####++++++  @@@",
"   +++++++++++++++++++++#####ooo%%%$$oooOOOOO...#####++++++  @@@",
"   +++++++++++++++++++++#####ooo%%%$$oooOOOOO...#####++++++  @@@",
"@@@  ++++++########++++++++++XXX$$$OOOOOOOOOO...+++++++++++  @@@",
"@@@  ++++++########++++++++++XXX$$$OOOOOOOOOO...+++++++++++  @@@",
"@@@  +++++++++++++++++++++++++++XXXOOoooOOO..++++++++++++++  @@@",
"@@@  +++++++++++++++++++++++++++XXXOOoooOOO..++++++++++++++  @@@",
"@@@  +++++++++++++++++++++++++++XXXOOoooOOO..++++++++++++++  @@@",
"@@@@@   +++++++++++++++++++++++++++........+++++++++++++   @@@@@",
"@@@@@   +++++++++++++++++++++++++++........+++++++++++++   @@@@@",
"@@@@@   +++++++++++++++++++++++++++........+++++++++++++   @@@@@",
"@@@@@@@@     +++++++++++++++++++++++++++++++++++        @@@@@@@@",
"@@@@@@@@     +++++++++++++++++++++++++++++++++++        @@@@@@@@",
"@@@@@@@@@@@@@                                   @@@@@@@@@@@@@@@@",
"@@@@@@@@@@@@@                                   @@@@@@@@@@@@@@@@",
"@@@@@@@@@@@@@                                   @@@@@@@@@@@@@@@@"
};
