/* XPM */
static char *b788ada4ecd14ed2f9e635a880cc4e01tE9z1lzmJgBhfuLU[] = {
/* columns rows colors chars-per-pixel */
"64 64 8 1 ",
"  c #C0D470",
". c #EAE178",
"X c #5C4E92",
"o c #766DAA",
"O c #E8B5AC",
"+ c #DDD5DE",
"@ c #F3D8C5",
"# c #F3F2C0",
/* pixels */
"                                                                ",
"                                                                ",
"                                                                ",
"                                                                ",
"              XXXXXXXXXXX              XXXXXXXXXXX              ",
"              XXXXXXXXXXX              XXXXXXXXXXX              ",
"              XXXXXXXXXXX              XXXXXXXXXXX              ",
"           XXX###########XXX        XXX###########XXX           ",
"           XXX###########XXX        XXX###########XXX           ",
"           XXX###########XXX        XXX###########XXX           ",
"           XXX###########XXX        XXX###########XXX           ",
"           XXXOOOOOOO####XXXXXXXXXXXXXX####OOOOOOOXXX           ",
"           XXXOOOOOOO####XXXXXXXXXXXXXX####OOOOOOOXXX           ",
"           XXXOOOOOOO####XXXXXXXXXXXXXX####OOOOOOOXXX           ",
"           XXXOOOOOOO####++++++++++++++####OOOOOOOXXX           ",
"           XXXOOOOOOO####++++++++++++++####OOOOOOOXXX           ",
"           XXXOOOOOOO####++++++++++++++####OOOOOOOXXX           ",
"           XXXOOOOOOO####++++++++++++++####OOOOOOOXXX           ",
"           XXX###########++++++++++++++###########XXX           ",
"           XXX###########++++++++++++++###########XXX           ",
"           XXX###########++++++++++++++###########XXX           ",
"           XXX###########++++++++++++++###########XXX           ",
"           XXX###########++++++++++++++###########XXX           ",
"           XXX###########++++++++++++++###########XXX           ",
"           XXX###########++++++++++++++###########XXX           ",
"       XXXXXXX####################################XXXXXXX       ",
"       XXXXXXX####################################XXXXXXX       ",
"       XXXXXXX####################################XXXXXXX       ",
"           XXX####XXX######################XXX####XXX           ",
"           XXX####XXX######################XXX####XXX           ",
"           XXX####XXX######################XXX####XXX           ",
"           XXX####XXX######################XXX####XXX           ",
"       XXXXXXX####################################XXXXXXX       ",
"       XXXXXXX####################################XXXXXXX       ",
"       XXXXXXX####################################XXXXXXX       ",
"       XXXXXXX####################################XXXXXXX       ",
"           XXX@@@@@@@######################@@@@@@@XXX           ",
"           XXX@@@@@@@######################@@@@@@@XXX           ",
"           XXX@@@@@@@######################@@@@@@@XXX           ",
"              XXXXXXXooooooooooooooooooooooXXXXXXX              ",
"              XXXXXXXooooooooooooooooooooooXXXXXXX              ",
"              XXXXXXXooooooooooooooooooooooXXXXXXX              ",
"              XXXXXXXooooooooooooooooooooooXXXXXXX              ",
"           XXX++++###ooooooo....####ooooooo###++++XXX           ",
"           XXX++++###ooooooo....####ooooooo###++++XXX           ",
"           XXX++++###ooooooo....####ooooooo###++++XXX           ",
"           XXX++++##########........##########++++XXX           ",
"           XXX++++##########........##########++++XXX           ",
"           XXX++++##########........##########++++XXX           ",
"           XXX++++##########........##########++++XXX           ",
"              XXXXXXX######################XXXXXXX              ",
"              XXXXXXX######################XXXXXXX              ",
"              XXXXXXX######################XXXXXXX              ",
"                  XXX+++++++XXXXXXXX+++++++XXX                  ",
"                  XXX+++++++XXXXXXXX+++++++XXX                  ",
"                  XXX+++++++XXXXXXXX+++++++XXX                  ",
"                  XXX+++++++XXXXXXXX+++++++XXX                  ",
"                     XXXXXXX        XXXXXXX                     ",
"                     XXXXXXX        XXXXXXX                     ",
"                     XXXXXXX        XXXXXXX                     ",
"                                                                ",
"                                                                ",
"                                                                ",
"                                                                "
};
