/* XPM */
static char *_f252311f52340dbd240bea3e1813bafzTrZZu91vmDYNlkn[] = {
/* columns rows colors chars-per-pixel */
"64 64 9 1 ",
"  c #C0D470",
". c #EAE178",
"X c #5C4E92",
"o c #766DAA",
"O c #E8B5AC",
"+ c #E8EEAA",
"@ c #DDD5DE",
"# c #F3D8C5",
"$ c #F3F2C0",
/* pixels */
"                                                                ",
"                                                                ",
"                                                                ",
"                                                                ",
"           XXXXXXXXXXXXXX                  XXXXXXXXXX           ",
"           XXXXXXXXXXXXXX                  XXXXXXXXXX           ",
"           XXXXXXXXXXXXXX                  XXXXXXXXXX           ",
"       XXXX$$$$$$$$$$XXXXXXXXXXXXXXXXXXXXXX$$$$$$$$$$XXXX       ",
"       XXXX$$$$$$$$$$XXXXXXXXXXXXXXXXXXXXXX$$$$$$$$$$XXXX       ",
"       XXXX$$$$$$$$$$XXXXXXXXXXXXXXXXXXXXXX$$$$$$$$$$XXXX       ",
"       XXXX$$$$$$$$$$XXXXXXXXXXXXXXXXXXXXXX$$$$$$$$$$XXXX       ",
"       XXXXOOOOOOO$$$$$$$@@@@@@@@@@@@@@$$$$$$$OOOOOOOXXXX       ",
"       XXXXOOOOOOO$$$$$$$@@@@@@@@@@@@@@$$$$$$$OOOOOOOXXXX       ",
"       XXXXOOOOOOO$$$$$$$@@@@@@@@@@@@@@$$$$$$$OOOOOOOXXXX       ",
"       XXXXOOOOOOO$$$$$$$@@@@@@@@@@@@@@$$$$$$$OOOOOOOXXXX       ",
"       XXXXOOOOOOO$$$$$$$@@@@@@@@@@@@@@$$$$$$$OOOOOOOXXXX       ",
"       XXXXOOOOOOO$$$$$$$@@@@@@@@@@@@@@$$$$$$$OOOOOOOXXXX       ",
"       XXXXOOOOOOO$$$$$$$@@@@@@@@@@@@@@$$$$$$$OOOOOOOXXXX       ",
"           XXX$$$$$$$$$$$@@@@@@@@@@@@@@$$$$$$$$$$$XXX           ",
"           XXX$$$$$$$$$$$@@@@@@@@@@@@@@$$$$$$$$$$$XXX           ",
"           XXX$$$$$$$$$$$@@@@@@@@@@@@@@$$$$$$$$$$$XXX           ",
"       XXXXXXX$$$$$$$$$$$$$$$$$$$$$$$$$$$$$$$$$$$$XXXXXXX       ",
"       XXXXXXX$$$$$$$$$$$$$$$$$$$$$$$$$$$$$$$$$$$$XXXXXXX       ",
"       XXXXXXX$$$$$$$$$$$$$$$$$$$$$$$$$$$$$$$$$$$$XXXXXXX       ",
"       XXXXXXX$$$$$$$$$$$$$$$$$$$$$$$$$$$$$$$$$$$$XXXXXXX       ",
"           XXX$$$$XXX$$$$$$$$$$$$$$$$$$$$$$XXX$$$$XXX           ",
"           XXX$$$$XXX$$$$$$$$$$$$$$$$$$$$$$XXX$$$$XXX           ",
"           XXX$$$$XXX$$$$$$$$$$$$$$$$$$$$$$XXX$$$$XXX           ",
"       XXXXXXX$$$$$$$$$$$$$$$$$$$$$$$$$$$$$$$$$$$$XXXXXXX       ",
"       XXXXXXX$$$$$$$$$$$$$$$$$$$$$$$$$$$$$$$$$$$$XXXXXXX       ",
"       XXXXXXX$$$$$$$$$$$$$$$$$$$$$$$$$$$$$$$$$$$$XXXXXXX       ",
"       XXXXXXX$$$$$$$$$$$$$$$$$$$$$$$$$$$$$$$$$$$$XXXXXXX       ",
"           XXX#######$$$$$$$$$$$$$$$$$$$$$$#######XXX           ",
"           XXX#######$$$$$$$$$$$$$$$$$$$$$$#######XXX           ",
"           XXX#######$$$$$$$$$$$$$$$$$$$$$$#######XXX           ",
"           XXX#######$$$$$$$$$$$$$$$$$$$$$$#######XXX           ",
"              XXXXXXXooooooooooooooooooooooXXXXXXX              ",
"              XXXXXXXooooooooooooooooooooooXXXXXXX              ",
"              XXXXXXXooooooooooooooooooooooXXXXXXX              ",
"                  XXXooooooo....$$$$oooooooXXX                  ",
"                  XXXooooooo....$$$$oooooooXXX                  ",
"               +++XXXooooooo....$$$$oooooooXXX                  ",
"               +++XXXooooooo....$$$$oooooooXXX                  ",
"              XXXX@@@$$$$$$$........$$$$$$$@@@XXXX              ",
"              XXXX@@@$$$$$$$........$$$$$$$@@@XXXX              ",
"              XXXX@@@$$$$$$$........$$$$$$$@@@XXXX              ",
"              XXXX@@@$$$$$$$$$$$$$$$$$$$$$$@@@XXXX              ",
"              XXXX@@@$$$$$$$$$$$$$$$$$$$$$$@@@XXXX              ",
"              XXXX@@@$$$$$$$$$$$$$$$$$$$$$$@@@XXXX              ",
"              XXXX@@@$$$$$$$$$$$$$$$$$$$$$$@@@XXXX              ",
"                  XXX$$$$$$$$$$$$$$$$$$$$$$XXX                  ",
"                  XXX$$$$$$$$$$$$$$$$$$$$$$XXX                  ",
"                  XXX$$$$$$$$$$$$$$$$$$$$$$XXX                  ",
"                  XXX@@@@@@@XXXXXXXX@@@@@@@XXX                  ",
"                  XXX@@@@@@@XXXXXXXX@@@@@@@XXX                  ",
"                  XXX@@@@@@@XXXXXXXX@@@@@@@XXX                  ",
"                  XXX@@@@@@@XXXXXXXX@@@@@@@XXX                  ",
"                     XXXXXXX        XXXXXXX                     ",
"                     XXXXXXX        XXXXXXX                     ",
"                     XXXXXXX        XXXXXXX                     ",
"                                                                ",
"                                                                ",
"                                                                ",
"                                                                "
};
