/* XPM */
static char *_f9d86a2eeeb449bceea45b7eee4106etlnP6GhNAEtZfl7e[] = {
/* columns rows colors chars-per-pixel */
"64 64 9 1 ",
"  c #754C60",
". c #90625D",
"X c #C49A6C",
"o c #B7C973",
"O c #D4C169",
"+ c #C0D470",
"@ c #C58086",
"# c #E8CFA6",
"$ c #F3F2C0",
/* pixels */
"++++++++++++++++++++++++++++++++++++++++++++++++++++++++++++++++",
"++++++++++++++++++++++++++++++++++++++++++++++++++++++++++++++++",
"++++++++++++++++++++++++++++++++++++++++++++++++++++++++++++++++",
"++++++++++++++++++++++++++++++++++++++++++++++++++++++++++++++++",
"++++++++++++++++++++++++++++++++++++++++++++++++++++++++++++++++",
"++++++++++++++++++++++++++++++..............++++++++++++++++++++",
"++++++++++++++++++++++++++++++..............++++++++++++++++++++",
"++++++++++++++++++++++++++++++..............++++++++++++++++++++",
"++++++++++++++++++++++++++++++..............++++++++++++++++++++",
"++++++++++++++++++++++++++++++..............++++++++++++++++++++",
"+++++++++++++++++++++++++.....@@@@@@@@@@@@@@.....+++++++++++++++",
"+++++++++++++++++++++++++.....@@@@@@@@@@@@@@.....+++++++++++++++",
"+++++++++++++++++++++++++.....@@@@@@@@@@@@@@.....+++++++++++++++",
"+++++++++++++++++++++++++.....@@@@@@@@@@@@@@.....+++++++++++++++",
"+++++++++++++++++++++++++.....@@@@@@@@@@@@@@.....+++++++++++++++",
"++++++++++++++++++++.....$$$$$$$$$$$$$$$$$$$$$$$$.....++++++++++",
"++++++++++++++++++++.....$$$$$$$$$$$$$$$$$$$$$$$$.....++++++++++",
"++++++++++++++++++++.....$$$$$$$$$$$$$$$$$$$$$$$$.....++++++++++",
"++++++++++++++++++++.....$$$$$$$$$$$$$$$$$$$$$$$$.....++++++++++",
"++++++++++++++++++++.....$$$$$$$$$$$$$$$$$$$$$$$$.....++++++++++",
"+++++++++++++++.....$$$$$$$$$$    $$$$$$$$$$     $$$$$.....+++++",
"+++++++++++++++.....$$$$$$$$$$    $$$$$$$$$$     $$$$$.....+++++",
"+++++++++++++++.....$$$$$$$$$$    $$$$$$$$$$     $$$$$.....+++++",
"+++++++++++++++.....$$$$$$$$$$    $$$$$$$$$$     $$$$$.....+++++",
"+++++++++++++++.....$$$$$$$$$$    $$$$$$$$$$     $$$$$.....+++++",
"+++++++++++++++.....$$$$$$$$$$$$$$$$$$$OOOOOOOOOO$$$$$.....+++++",
"+++++++++++++++.....$$$$$$$$$$$$$$$$$$$OOOOOOOOOO$$$$$.....+++++",
"+++++++++++++++.....$$$$$$$$$$$$$$$$$$$OOOOOOOOOO$$$$$.....+++++",
"+++++++++++++++.....$$$$$$$$$$$$$$$$$$$OOOOOOOOOO$$$$$.....+++++",
"+++++++++++++++.....$$$$$$$$$$$$$$$$$$$OOOOOOOOOO$$$$$.....+++++",
"++++++++++.....$$$$$$$$$$$$$$$$$$$$$$$$$$$$$$$$$$$$$$$.....+++++",
"++++++++++.....$$$$$$$$$$$$$$$$$$$$$$$$$$$$$$$$$$$$$$$.....+++++",
"++++++++++.....$$$$$$$$$$$$$$$$$$$$$$$$$$$$$$$$$$$$$$$.....+++++",
"++++++++++.....$$$$$$$$$$$$$$$$$$$$$$$$$$$$$$$$$$$$$$$.....+++++",
"+++++.....$$$$$$$$$$$$$$$$$$$$$$$$$$$$$$$$$$$$$$$$$$$$.....+++++",
"+++++.....$$$$$$$$$$$$$$$$$$$$$$$$$$$$$$$$$$$$$$$$$$$$.....+++++",
"+++++.....$$$$$$$$$$$$$$$$$$$$$$$$$$$$$$$$$$$$$$$$$$$$.....+++++",
"+++++.....$$$$$$$$$$$$$$$$$$$$$$$$$$$$$$$$$$$$$$$$$$$$.....+++++",
"+++++.....$$$$$$$$$$$$$$$$$$$$$$$$$$$$$$$$$$$$$$$$$$$$.....+++++",
"+++++.....#####$$$$$$$$$$$$$$$XXXX$$$$$$$$$$$$$$$#####.....+++++",
"+++++.....#####$$$$$$$$$$$$$$$XXXX$$$$$$$$$$$$$$$#####.....+++++",
"+++++.....#####$$$$$$$$$$$$$$$XXXX$$$$$$$$$$$$$$$#####.....+++++",
"+++++.....#####$$$$$$$$$$$$$$$XXXX$$$$$$$$$$$$$$$#####.....+++++",
"+++++.....#####$$$$$$$$$$$$$$$XXXX$$$$$$$$$$$$$$$#####.....+++++",
"++++++++++.....XXXXXXXXXXXXXXX###################.....++++++++++",
"++++++++++.....XXXXXXXXXXXXXXX###################.....++++++++++",
"++++++++++.....XXXXXXXXXXXXXXX###################.....++++++++++",
"++++++++++.....XXXXXXXXXXXXXXX###################.....++++++++++",
"++++++++++.....XXXXXXXXXXXXXXX###################.....++++++++++",
"++++++++++ooooo.....OOOOOOOOOO....OOOOOOOOOO.....ooooo++++++++++",
"++++++++++ooooo.....OOOOOOOOOO....OOOOOOOOOO.....ooooo++++++++++",
"++++++++++ooooo.....OOOOOOOOOO....OOOOOOOOOO.....ooooo++++++++++",
"++++++++++ooooo.....OOOOOOOOOO....OOOOOOOOOO.....ooooo++++++++++",
"++++++++++ooooo.....OOOOOOOOOO....OOOOOOOOOO.....ooooo++++++++++",
"+++++ooooooooooooooo..........oooo..........ooooooooooooooo+++++",
"+++++ooooooooooooooo..........oooo..........ooooooooooooooo+++++",
"+++++ooooooooooooooo..........oooo..........ooooooooooooooo+++++",
"+++++ooooooooooooooo..........oooo..........ooooooooooooooo+++++",
"+++++ooooooooooooooo..........oooo..........ooooooooooooooo+++++",
"++++++++++oooooooooooooooooooooooooooooooooooooooooooo++++++++++",
"++++++++++oooooooooooooooooooooooooooooooooooooooooooo++++++++++",
"++++++++++oooooooooooooooooooooooooooooooooooooooooooo++++++++++",
"++++++++++oooooooooooooooooooooooooooooooooooooooooooo++++++++++",
"++++++++++oooooooooooooooooooooooooooooooooooooooooooo++++++++++"
};
