/* XPM */
static char *b602600f6db44a6fd5eec545dd905ad7V9AddLp65LrA57Mx[] = {
/* columns rows colors chars-per-pixel */
"64 64 9 1 ",
"  c #754C60",
". c #90625D",
"X c #C49A6C",
"o c #B7C973",
"O c #D4C169",
"+ c #C0D470",
"@ c #C58086",
"# c #E8CFA6",
"$ c #F3F2C0",
/* pixels */
"++++++++++++++++++++++++++++++++++++++++++++++++++++++++++++++++",
"++++++++++++++++++++++++++++++++++++++++++++++++++++++++++++++++",
"++++++++++++++++++++++++++++++++++++++++++++++++++++++++++++++++",
"++++++++++++++++++++++++++++++++++++++++++++++++++++++++++++++++",
"++++++++++++++++++++++++++++++++++++++++++++++++++++++++++++++++",
"+++++++++++++++++++++++++++++...............++++++++++++++++++++",
"+++++++++++++++++++++++++++++...............++++++++++++++++++++",
"+++++++++++++++++++++++++++++...............++++++++++++++++++++",
"+++++++++++++++++++++++++++++...............++++++++++++++++++++",
"+++++++++++++++++++++++++++++...............++++++++++++++++++++",
"++++++++++++++++++++++++.....@@@@@@@@@@@@@@@.....+++++++++++++++",
"++++++++++++++++++++++++.....@@@@@@@@@@@@@@@.....+++++++++++++++",
"++++++++++++++++++++++++.....@@@@@@@@@@@@@@@.....+++++++++++++++",
"++++++++++++++++++++++++.....@@@@@@@@@@@@@@@.....+++++++++++++++",
"++++++++++++++++++++++++.....@@@@@@@@@@@@@@@.....+++++++++++++++",
"+++++++++++++++++++.....$$$$$$$$$$$$$$$$$$$$$$$$$.....++++++++++",
"+++++++++++++++++++.....$$$$$$$$$$$$$$$$$$$$$$$$$.....++++++++++",
"+++++++++++++++++++.....$$$$$$$$$$$$$$$$$$$$$$$$$.....++++++++++",
"+++++++++++++++++++.....$$$$$$$$$$$$$$$$$$$$$$$$$.....++++++++++",
"+++++++++++++++++++.....$$$$$$$$$$$$$$$$$$$$$$$$$.....++++++++++",
"+++++++++++++++....$$$$$          $$$$$$$$$$          .....+++++",
"+++++++++++++++....$$$$$          $$$$$$$$$$          .....+++++",
"+++++++++++++++....$$$$$          $$$$$$$$$$          .....+++++",
"+++++++++++++++....$$$$$          $$$$$$$$$$          .....+++++",
"+++++++++++++++....$$$$$          $$$$$$$$$$          .....+++++",
"+++++++++++++++....$$$$$$$$$$$$$$$$$$$$OOOOOOOOOO$$$$$.....+++++",
"+++++++++++++++....$$$$$$$$$$$$$$$$$$$$OOOOOOOOOO$$$$$.....+++++",
"+++++++++++++++....$$$$$$$$$$$$$$$$$$$$OOOOOOOOOO$$$$$.....+++++",
"+++++++++++++++....$$$$$$$$$$$$$$$$$$$$OOOOOOOOOO$$$$$.....+++++",
"++++++++++.....$$$$$$$$$$$$$$$$$$$$$$$$$$$$$$$$$$$$$$$.....+++++",
"++++++++++.....$$$$$$$$$$$$$$$$$$$$$$$$$$$$$$$$$$$$$$$.....+++++",
"++++++++++.....$$$$$$$$$$$$$$$$$$$$$$$$$$$$$$$$$$$$$$$.....+++++",
"++++++++++.....$$$$$$$$$$$$$$$$$$$$$$$$$$$$$$$$$$$$$$$.....+++++",
"++++++++++.....$$$$$$$$$$$$$$$$$$$$$$$$$$$$$$$$$$$$$$$.....+++++",
"+++++.....$$$$$$$$$$$$$$$$$$$$$$$$$$$$$$$$$$$$$$$$$$$$.....+++++",
"+++++.....$$$$$$$$$$$$$$$$$$$$$$$$$$$$$$$$$$$$$$$$$$$$.....+++++",
"+++++.....$$$$$$$$$$$$$$$$$$$$$$$$$$$$$$$$$$$$$$$$$$$$.....+++++",
"+++++.....$$$$$$$$$$$$$$$$$$$$$$$$$$$$$$$$$$$$$$$$$$$$.....+++++",
"+++++.....$$$$$$$$$$$$$$$$$$$$$$$$$$$$$$$$$$$$$$$$$$$$.....+++++",
"+++++.....#####$$$$$$$$$$$$$$XXXXX$$$$$$$$$$$$$$$#####.....+++++",
"+++++.....#####$$$$$$$$$$$$$$XXXXX$$$$$$$$$$$$$$$#####.....+++++",
"+++++.....#####$$$$$$$$$$$$$$XXXXX$$$$$$$$$$$$$$$#####.....+++++",
"+++++.....#####$$$$$$$$$$$$$$XXXXX$$$$$$$$$$$$$$$#####.....+++++",
"+++++.....#####$$$$$$$$$$$$$$XXXXX$$$$$$$$$$$$$$$#####.....+++++",
"++++++++++.....XXXXXXXXXXXXXX####################.....++++++++++",
"++++++++++.....XXXXXXXXXXXXXX####################.....++++++++++",
"++++++++++.....XXXXXXXXXXXXXX####################.....++++++++++",
"++++++++++.....XXXXXXXXXXXXXX####################.....++++++++++",
"++++++++++.....XXXXXXXXXXXXXX####################.....++++++++++",
"++++++++++ooooo....OOOOOOOOOO.....OOOOOOOOOO.....ooooo++++++++++",
"++++++++++ooooo....OOOOOOOOOO.....OOOOOOOOOO.....ooooo++++++++++",
"++++++++++ooooo....OOOOOOOOOO.....OOOOOOOOOO.....ooooo++++++++++",
"++++++++++ooooo....OOOOOOOOOO.....OOOOOOOOOO.....ooooo++++++++++",
"++++++++++ooooo....OOOOOOOOOO.....OOOOOOOOOO.....ooooo++++++++++",
"+++++oooooooooooooo..........ooooo..........ooooooooooooooo+++++",
"+++++oooooooooooooo..........ooooo..........ooooooooooooooo+++++",
"+++++oooooooooooooo..........ooooo..........ooooooooooooooo+++++",
"+++++oooooooooooooo..........ooooo..........ooooooooooooooo+++++",
"+++++oooooooooooooo..........ooooo..........ooooooooooooooo+++++",
"++++++++++oooooooooooooooooooooooooooooooooooooooooooo++++++++++",
"++++++++++oooooooooooooooooooooooooooooooooooooooooooo++++++++++",
"++++++++++oooooooooooooooooooooooooooooooooooooooooooo++++++++++",
"++++++++++oooooooooooooooooooooooooooooooooooooooooooo++++++++++",
"++++++++++oooooooooooooooooooooooooooooooooooooooooooo++++++++++"
};
