/* XPM */
static char *_3de57799b824442e6d6d942038e7800pEhDcl4DAD2PRt4I[] = {
/* columns rows colors chars-per-pixel */
"64 64 9 1 ",
"  c #957A4B",
". c #90625D",
"X c #B09643",
"o c #BFA954",
"O c #D4C169",
"+ c #C0D470",
"@ c #E8CFA6",
"# c #E8EEAA",
"$ c #F3F2C0",
/* pixels */
"++++++++++++++++++++++++++++++++++++++++++++++++++++++++++++++++",
"++++++++++++++++++++++++++++++++++++++++++++++++++++++++++++++++",
"++++++++++++++++++++++++++++++++++++++++++++++++++++++++++++++++",
"++++++++++++++++++++++++++++++++++++++++++++++++++++++++++++++++",
"++++++++++++++++++++++++++++++++++++++++++++++++++++++++++++++++",
"++++++++++++++++++++++++++++++++++++++++++++++++++++++++++++++++",
"++++++++++++++++++++++++++++++++++++++++++++++++++++++++++++++++",
"++++++++++++++++++++++++++++++++++++++++++++++++++++++++++++++++",
"++++++++++++++++++++++++++++++++++++++++++++++++++++++++++++++++",
"++++++++++++++++++++++++++++++++++++++++++++++++++++++++++++++++",
"++++++++++++++++++++++++++++++++++++++++++++++++++++++++++++++++",
"++++++++++++++++++++++++++++++++++++++++++++++++++++++++++++++++",
"++++++++++++++++++++++++++++++++++++++++++++++++++++++++++++++++",
"++++++++++++++++++++++++++++++++++++++++++++++++++++++++++++++++",
"++++++++++++++++++++++++++++++++++++++++++++++++++++++++++++++++",
"+++++++++++++++++++++++++++++++++++++++++####++++####+++++++++++",
"+++++++++++++++++++++++++++++++++++++++++####++++####+++++++++++",
"+++++++++++++++++++++++++++++++++++++++++####++++####+++++++++++",
"+++++++++++++++++++++++++++++++++++++++++####++++####+++++++++++",
"+++++++++++++++++++++++++++++++++++++++++++++####+++++++++++++++",
"+++++++++++++++++++++++++++++++++++++++++++++####+++++++++++++++",
"+++++++++++++++++++++++++++++++++++++++++++++####+++++++++++++++",
"+++++++++++++++++++++++++++++++++++++++++++++####+++++++++++++++",
"++++++++++++++++++++++++++++++++++++++++++++++++++++++++++++++++",
"++++++++++++++++++++++++++++........++++++++++++++++++++++++++++",
"++++++++++++++++++++++++++++........++++++++++++++++++++++++++++",
"++++++++++++++++++++++++++++........++++++++++++++++++++++++++++",
"++++++++++++++++++++++++++++........++++++++++++++++++++++++++++",
"++++++++++++++++++++++++....$$$$$$$$....++++++++++++++++++++++++",
"++++++++++++++++++++++++....$$$$$$$$....++++++++++++++++++++++++",
"++++++++++++++++++++++++....$$$$$$$$....++++++++++++++++++++++++",
"++++++++++++++++++++++++....$$$$$$$$....++++++++++++++++++++++++",
"++++++++++++++++    ....$$$$$$$$$$$$@@@@....    ++++++++++++++++",
"++++++++++++++++    ....$$$$$$$$$$$$@@@@....    ++++++++++++++++",
"++++++++++++++++    ....$$$$$$$$$$$$@@@@....    ++++++++++++++++",
"++++++++++++++++    ....$$$$$$$$$$$$@@@@....    ++++++++++++++++",
"++++++++++++    oooo....$$$$$$$$$$$$@@@@....oooo    ++++++++++++",
"++++++++++++    oooo....$$$$$$$$$$$$@@@@....oooo    ++++++++++++",
"++++++++++++    oooo....$$$$$$$$$$$$@@@@....oooo    ++++++++++++",
"++++++++++++    oooo....$$$$$$$$$$$$@@@@....oooo    ++++++++++++",
"++++++++    OOOOOOOO    $$$$$$$$$$$$@@@@    OOOOOOOO    ++++++++",
"++++++++    OOOOOOOO    $$$$$$$$$$$$@@@@    OOOOOOOO    ++++++++",
"++++++++    OOOOOOOO    $$$$$$$$$$$$@@@@    OOOOOOOO    ++++++++",
"++++++++    OOOOOOOO    $$$$$$$$$$$$@@@@    OOOOOOOO    ++++++++",
"++++++++    ooooOOOOOOOO                OOOOOOOOoooo    ++++++++",
"++++++++    ooooOOOOOOOO                OOOOOOOOoooo    ++++++++",
"++++++++    ooooOOOOOOOO                OOOOOOOOoooo    ++++++++",
"++++++++    ooooOOOOOOOO                OOOOOOOOoooo    ++++++++",
"++++++++    XXXXooooooooooooooooooooooooooooooooXXXX    ++++++++",
"++++++++    XXXXooooooooooooooooooooooooooooooooXXXX    ++++++++",
"++++++++    XXXXooooooooooooooooooooooooooooooooXXXX    ++++++++",
"++++++++    XXXXooooooooooooooooooooooooooooooooXXXX    ++++++++",
"++++++++++++    XXXXXXXXooooooooooooXXXXXXXXoooo    ++++++++++++",
"++++++++++++    XXXXXXXXooooooooooooXXXXXXXXoooo    ++++++++++++",
"++++++++++++    XXXXXXXXooooooooooooXXXXXXXXoooo    ++++++++++++",
"++++++++++++    XXXXXXXXooooooooooooXXXXXXXXoooo    ++++++++++++",
"++++++++++++++++                                ++++++++++++++++",
"++++++++++++++++                                ++++++++++++++++",
"++++++++++++++++                                ++++++++++++++++",
"++++++++++++++++                                ++++++++++++++++",
"++++++++++++++++++++++++++++++++++++++++++++++++++++++++++++++++",
"++++++++++++++++++++++++++++++++++++++++++++++++++++++++++++++++",
"++++++++++++++++++++++++++++++++++++++++++++++++++++++++++++++++",
"++++++++++++++++++++++++++++++++++++++++++++++++++++++++++++++++"
};
