/* XPM */
static char *e0335fce1f454089902a2db4235bdb29Irh8bOlW9V5tYtRm[] = {
/* columns rows colors chars-per-pixel */
"64 64 16 1 ",
"  c #6B4B5B",
". c #754C60",
"X c #90625D",
"o c #AA7959",
"O c #67835C",
"+ c #78A158",
"@ c #8DB15D",
"# c #B68962",
"$ c #C49A6C",
"% c #A4C263",
"& c #BDD071",
"* c #C0D370",
"= c #C0D470",
"- c #DCB98A",
"; c #E8CFA6",
": c #F3E5C2",
/* pixels */
"===========================XXXXXXXXXX===========================",
"===========================XXXXXXXXXX===========================",
"======================XXXXX----------XXXXX======================",
"=================XXXXX--------------------XXXXX=================",
"=================XXXXX--------------------XXXXX=================",
"============XXXXX----------++++++++++----------XXXXX============",
"============XXXXX----------++++++++++----------XXXXX============",
"=======XXXXX----------+++++==%%%%%%==+++++----------XXXXX=======",
"==XXXXX----------+++++%%@++==%%%%%%==++@%%+++++----------XXXXX==",
"==XXXXX----------+++++%%@++==%%%%%%==++@%%+++++----------XXXXX==",
"XX----------+++++++===%%@++%%@@@@@@%%++@%%===+++++++----------XX",
"XX----------+++++++===%%@++%%@@@@@@%%++@%%===+++++++----------XX",
"XX-----+++++%%%@@++===%%@++==%%%%%%==++@%%===++@@%%%+++++-----XX",
"XX$++++@++===%%@@++%%%%%@++==%%%%%%==++@%%%%%++@@%%===++@++++$XX",
"XX$++++@++===%%@@++%%%%%@++==%%%%%%==++@%%%%%++@@%%===++@++++$XX",
"==XOO%%@++===%%@@++===%%@++%%@@@@@@%%++@%%===++@@%%===++@%%OOX==",
"==XOO%%@++===%%@@++===%%@++%%@@@@@@%%++@%%===++@@%%===++@%%OOX==",
"===OO%%@++%%%%%@@++===%%@++==%%%%%%==++@%%===++@@%%%%%++@%%OO===",
"===OO%%@++%%%%%@@++===%%@++==%%%%%%==++@%%===++@@%%%%%++@%%OO===",
"===OO%%@++===%%@@++%%%%%@++==%%%%%%==++@%%%%%++@@%%===++@%%OO===",
"===OO%%@++===%%@@++===%%@++oooooooooo++@%%===++@@%%===++@%%OO===",
"===OO%%@++===%%@@++===%%@++oooooooooo++@%%===++@@%%===++@%%OO===",
"===OO%%@++%%%%%@@++===ooooo;;;;;;;;;;ooooo===++@@%%%%%++@%%OO===",
"===OO%%@++%%%%%@@++===ooooo;;;;;;;;;;ooooo===++@@%%%%%++@%%OO===",
"===OO%%@++===%%@@ooooo;;;;;::::::::::;;;;;ooooo@@%%===++@%%OO===",
"===OO%%@++==ooooo;;;;;:::::----------:::::;;;;;ooooo==++@%%OO===",
"===OO%%@++==ooooo;;;;;:::::----------:::::;;;;;ooooo==++@%%OO===",
"===OO%%ooooo;;;;;:::::--------------------:::::;;;;;ooooo%%OO===",
"===OO%%ooooo;;;;;:::::--------------------:::::;;;;;ooooo%%OO===",
"==ooooo;;;;;:::::----------XXXXXXXXXX----------:::::;;;;;ooooo==",
"oo;;;;;:::::----------XXXXXXXXXXXXXXXXXXXX----------:::::;;;;;oo",
"oo;;;;;:::::----------XXXXXXXXXXXXXXXXXXXX----------:::::;;;;;oo",
"oo:::::----------XXXXXXXXXXXXXXXXXXXXXXXXXXXXXX----------:::::oo",
"oo:::::----------XXXXXXXXXXXXXXXXXXXXXXXXXXXXXX----------:::::oo",
"XX----------XXXXXXXXXXXXXXXXXXXXXXXXXXXXXXXXXXXXXXXX----------XX",
"XX-----XXXXXooooooooooooooooooooooooooooooooooooooooXXXXX-----XX",
"XX-----XXXXXooooooooooooooooooooooooooooooooooooooooXXXXX-----XX",
"==XXXXX#$$$$$$$$$$$$$$$$$$$$$$$$$$$$$$$$$$$$$$$$$$$$$$$$#XXXXX==",
"==XXXXX#$$$$$$$$$$$$$$$$$$$$$$$$$$$$$$$$$$$$$$$$$$$$$$$$#XXXXX==",
"=====..$$$$$$$$$$$$$$$$$$$$$$$$$$$$$$$$$$$$$$$$$$$$$$$$$$  =====",
"=====..oooooooooooooooooooooooooooooooooooooooooooooooooo..=====",
"=====..oooooooooooooooooooooooooooooooooooooooooooooooooo..=====",
"=====..$$$$$$$$$$$$$$$$$$$$$$$$$$$$$$$$$$$$$$$$$$$$$$$$$$..=====",
"=====..$$$$$$$$$$$$$$$$$$$$$$$$$$$$$$$$$$$$$$$$$$$$$$$$$$..=====",
"=====..$$$$$$$$$$$$$$$$$$$$$$$$$$$$$$$$$$$$$$$$$$$$$$$$$$..=====",
"=====..$$$$$.....$$$$$$$$$$$$$$$$$$$$$$$$$$$$$$.....$$$$$..=====",
"=====..$$$$$.....$$$$$$$$$$$$$$$$$$$$$$$$$$$$$$.....$$$$$..=====",
"=====..ooo..XXXXX..oooooooo..........oooooooo..XXXXX..ooo..=====",
"=====..ooo..XXXXX..oooooooo..........oooooooo..XXXXX..ooo..=====",
"=====..$$$..XXXXX..$$$$$$..XXXXXXXXXX..$$$$$$..XXXXX..$$$..=====",
"=====..$$$..XXXXX..$$$$$$..XXXXXXXXXX..$$$$$$..XXXXX..$$$..=====",
"=====..$$$..XXXXX..$$$$$.XXXXXXXXXXXXXX.$$$$$..XXXXX..$$$..=====",
"=====..$$$..$$$$$..$$$$$.XXXXXXXXXXXXXX.$$$$$..$$$$$..$$$..=====",
"=====..$$$..$$$$$..$$$$$.XXXXXXXXXXXXXX.$$$$$..$$$$$..$$$..=====",
"=====..ooooo-----ooooooo.XXXXXXXXXXXXXX.ooooooo-----ooooo..=====",
"=====..ooooo-----ooooooo.XXXXXXXXXXXXXX.ooooooo-----ooooo..=====",
"=====..$$$$$$$$$$$$$$$$$.XXXXXXXXXXXXXX.$$$$$$$$$$$$$$$$$..=====",
"=====..$$$$$$$$$$$$$$$$$.XXXXXXXXXXXXXX.$$$$$$$$$$$$$$$$$..=====",
"=====..$$$$$$$$$$$$$$$$$.XXXXXXXXXXXXXX.$$$$$$$$$$$$$$$$$..=====",
"=====..$$$$$$$$$$$$$$$$$.XXooooooooooXX.$$$$$$$$$$$$$$$$$..=====",
"=====..$$$$$$$$$$$$$$$$$.XXooooooooooXX.$$$$$$$$$$$$$$$$$..=====",
"=======..................................................=======",
"=================&&&&&&&======**==*=====&&==========**==========",
"=================&&&&&&&======**==*=====&&==========**=========="
};
