/* XPM */
static char *_beb13e67eef4b5ce9944f3fc3f604a2WwsDZB07Vf6xdXsq[] = {
/* columns rows colors chars-per-pixel */
"64 64 12 1 ",
"  c None",
". c #4F422F",
"X c #C79D00",
"o c #FFD300",
"O c #A88D65",
"+ c #D1B07D",
"@ c #DCC6A4",
"# c #EB94EB",
"$ c #E7DDCE",
"% c #D3D2E0",
"& c #EDEDF2",
"* c white",
/* pixels */
"                                                                ",
"                                                                ",
"                      ..                ...                     ",
"                      ..                ...                     ",
"                      ..                ...                     ",
"                   ...@@..            ..@@@..                   ",
"                   ...@@..            ..@@@..                   ",
"                 ..+++$$++...       ..++$$$++..                 ",
"                 ..+++$$++...       ..++$$$++..                 ",
"                 ..@@@##$$...       ..$$###@@..                 ",
"                 ..@@@##$$...       ..$$###@@..                 ",
"                 ..@@@##$$...       ..$$###@@..                 ",
"              ...++#####$$+++.......++$$#####++...              ",
"              ...++#####$$+++.......++$$#####++...              ",
"              ...@@###@@$$@@@@@@@@@@@@$$@@@##@@...              ",
"              ...@@###@@$$@@@@@@@@@@@@$$@@@##@@...              ",
"            ..+++@@$$$$$$$$$$$$$$$$$$$$$$$$$$@@+++..            ",
"            ..+++@@$$$$$$$$$$$$$$$$$$$$$$$$$$@@+++..            ",
"            ..+++@@$$$$$$$$$$$$$$$$$$$$$$$$$$@@+++..            ",
"            ..@@@$$$$$....$$$$$$$$$$$$.....$$$$@@@..            ",
"            ..@@@$$$$$....$$$$$$$$$$$$.....$$$$@@@..            ",
"            ..@@@$$$$$..**$$$$$$$$$$$$**...$$$$@@@..            ",
"            ..@@@$$$$$..**$$$$$$$$$$$$**...$$$$@@@..            ",
"            ..@@@$$$$$..**$$$$$$$$$$$$**...$$$$@@@..            ",
"          ....@@@$$$$$XXXX$$$$$$$$$$$$XXXXX$$$$@@@.....         ",
"          ....@@@$$$$$XXXX$$$$$$$$$$$$XXXXX$$$$@@@.....         ",
"            ..@@@$$$$$oooo$$$$$$$$$$$$ooooo$$$$@@@..            ",
"            ..@@@$$$$$oooo$$$$$$$$$$$$ooooo$$$$@@@..            ",
"          ....+++@@$$$$$$$*****..*****$$$$$$$@@+++.....         ",
"          ....+++@@$$$$$$$*****..*****$$$$$$$@@+++.....         ",
"          ....+++@@$$$$$$$*****..*****$$$$$$$@@+++.....         ",
"              ...++@@@$$*****OO%%OOO****$$$@@++...              ",
"              ...++@@@$$*****OO%%OOO****$$$@@++...              ",
"                 .....++%%&&&&&&&&&&&&%%+++....                 ",
"                 .....++%%&&&&&&&&&&&&%%+++....                 ",
"                   ..........................                   ",
"                   ..........................                   ",
"                   ..........................                   ",
"                 ..@@@$$@@%%%%%%%%%%%%@@$$$@@..                 ",
"                 ..@@@$$@@%%%%%%%%%%%%@@$$$@@..                 ",
"              ...@@$$$++$$************$$+++$$@@...              ",
"              ...@@$$$++$$************$$+++$$@@...              ",
"            ..+++@@+++..$$************$$...++@@+++..            ",
"            ..+++@@+++..$$************$$...++@@+++..            ",
"            ..+++@@+++..$$************$$...++@@+++..            ",
"            ..+++++.....$$************$$.....+++++..            ",
"            ..+++++.....$$************$$.....+++++..            ",
"              .....   ..@@$$$*******$$@@...  .....OO...         ",
"              .....   ..@@$$$*******$$@@...  .....OO...         ",
"                      ..@@++++++++++++@@.......OOOOO...         ",
"                      ..@@++++++++++++@@.......OOOOO...         ",
"                      ..@@++++++++++++@@.......OOOOO...         ",
"                      ..@@@@@.......@@@@...OOOOOOO..            ",
"                      ..@@@@@.......@@@@...OOOOOOO..            ",
"                      ..@@@@@.......@@@@..........              ",
"                      ..@@@@@.......@@@@..........              ",
"                      ..@@@@@.......@@@@..........              ",
"                      ..+++++..  ...++++...                     ",
"                      ..+++++..  ...++++...                     ",
"                        .....       ....                        ",
"                        .....       ....                        ",
"                                                                ",
"                                                                ",
"                                                                "
};
